# xmcd
#
# Track frame offsets: 
#        150
#        33255
#        62057
#        86487
#        103857
#        128897
#        153957
#        176685
#        193457
#        214822
#        232425
#        253002
#
# Disc length: 3584 seconds
#
# Revision: 1
# Processed by: cddbd v1.5.2PL0 Copyright (c) Steve Scherf et al.
# Submitted via: ExactAudioCopyFreeDBPlugin 1.0
#
DISCID=b10dfe0c
DTITLE=Various Artist - Smooth Grooves:  Soulful Duets [Rhino]
DYEAR=2002
DGENRE=SMB
TTITLE0=Rick James and Teena Marie - Fire and Desire
TTITLE1=Rachelle Ferrell and Will Downing - Nothing Has Ever Felt Like
TTITLE1=This
TTITLE2=Cheryl Lynn and Luther Vandross - If This World Were Mine
TTITLE3=Ashford and Simpson - Is it Still Good To Ya
TTITLE4=René and Angela - You Don't Have to Cry
TTITLE5=Teddy Pendergrass and Stephanie Mills - Feel the Fire
TTITLE6=Phyllis Hyman and Michael Henderson - Can't We Fall in Love Ag
TTITLE6=ain
TTITLE7=Sharon Paige and Harold Melvin - Hope That We Can Be Together 
TTITLE7=Soon
TTITLE8=Kashif and Mili'sa Morgan - Love Changes
TTITLE9=Curtis Mayfield and Linda Clifford - Between You Baby and Me
TTITLE10=Miki Howard and Gerald Levert - That's What Love Is
TTITLE11=Peabo Bryson and Roberta Flack - Tonight, I Celebrate My Love
EXTD=
EXTT0=
EXTT1=
EXTT2=
EXTT3=
EXTT4=
EXTT5=
EXTT6=
EXTT7=
EXTT8=
EXTT9=
EXTT10=
EXTT11=
PLAYORDER=
